# xmcd
#
# Track frame offsets: 
#        150
#        19769
#        31944
#        41962
#        56458
#        69349
#        86928
#        106426
#        132440
#        145867
#        161494
#        179917
#        189541
#
# Disc length: 2785 seconds
#
# Revision: 0
# Processed by: cddbd v1.5.2PL0 Copyright (c) Steve Scherf et al.
# Submitted via: ExactAudioCopy v0.99pb3
#
DISCID=bd0adf0d
DTITLE=Yves Montand - Au théâtre de l'Etoile CD2
DYEAR=2005
DGENRE=Chanson
TTITLE0=Introduction d'orchestre
TTITLE1=Toi tu n'ressembles à personne
TTITLE2=Le chemin des oliviers
TTITLE3=Les routiers
TTITLE4=Donne-moi des sous
TTITLE5=Les cireurs de souliers de Broadway
TTITLE6=Dis-moi Jo
TTITLE7=Le chef d'orchestre est amoureux
TTITLE8=C'est à l'aube
TTITLE9=Barbara
TTITLE10=A Paris
TTITLE11=Les feuilles mortes
TTITLE12=C'est si bon
EXTD=
EXTT0=
EXTT1=
EXTT2=
EXTT3=
EXTT4=
EXTT5=
EXTT6=
EXTT7=
EXTT8=
EXTT9=
EXTT10=
EXTT11=
EXTT12=
PLAYORDER=
